<svg id="Capa_1" enable-background="new 0 0 512 512" height="512" viewBox="0 0 512 512" width="512" xmlns="http://www.w3.org/2000/svg"><g><g><g><g><path d="m256 24.059c-128.098 0-231.941 103.843-231.941 231.941 0 64.346 26.209 122.564 68.528 164.579 14.907 14.8 39.926 10.736 49.419-8.002 6.108-12.056 3.602-26.592-5.974-36.129-30.942-30.817-50.122-73.432-50.122-120.448 0-93.788 76.302-170.09 170.09-170.09z" fill="#92dd7a"/></g></g></g><g><g><g><path d="m96.389 87.719c12.22-8.186 28.909-6.885 39.704 3.909 11.128 11.128 12.171 28.521 3.129 40.823 30.488-28.833 71.602-46.541 116.778-46.541v-61.851c-61.844 0-118.03 24.208-159.611 63.66z" fill="#7ec66a"/></g></g></g><g><g><g><path d="m256 487.941c128.098 0 231.941-103.843 231.941-231.941 0-64.346-26.209-122.564-68.528-164.579-14.907-14.8-39.926-10.736-49.419 8.002-6.108 12.056-3.602 26.592 5.974 36.129 30.942 30.817 50.122 73.432 50.122 120.448 0 93.788-76.302 170.09-170.09 170.09z" fill="#92dd7a"/></g></g></g><g><g><g><g><path d="m375.907 420.372c-11.128-11.128-12.171-28.521-3.129-40.823-30.488 28.833-71.602 46.541-116.778 46.541v61.851c61.844 0 118.03-24.208 159.611-63.66-12.22 8.186-28.909 6.885-39.704-3.909z" fill="#7ec66a"/></g></g></g></g><g><g><g><path d="m342.755 169.245c-10.934-10.934-91.043-7.361-141.999 43.595-27.174 27.174-27.174 71.231 0 98.404 27.174 27.174 71.231 27.174 98.404 0 50.956-50.955 54.529-131.065 43.595-141.999z" fill="#b1ef97"/></g></g></g><g><g><g><path d="m222.608 234.692c39.372-39.372 96.141-50.452 124.964-48.412-.6-8.48-2.332-14.549-4.817-17.035-10.934-10.934-91.043-7.361-141.999 43.595-27.174 27.174-27.174 71.231 0 98.404 3.755 3.755 7.834 6.989 12.146 9.707-16.946-26.884-13.713-62.84 9.706-86.259z" fill="#92dd7a"/></g></g></g><g><g><g><path d="m284.317 292.199h-57.016c-4.142 0-7.5-3.358-7.5-7.5v-57.017c0-4.142 3.358-7.5 7.5-7.5s7.5 3.358 7.5 7.5v49.517h49.516c4.143 0 7.5 3.358 7.5 7.5s-3.357 7.5-7.5 7.5z" fill="#67b758"/></g></g></g><g><g><g><path d="m168.722 343.278c-6.039-6.039-6.039-15.829 0-21.868l92.117-92.117c6.039-6.039 15.829-6.039 21.868 0 6.039 6.039 6.039 15.829 0 21.868l-92.117 92.117c-6.039 6.039-15.83 6.039-21.868 0z" fill="#d5f48c"/></g></g></g><g><g><g><path d="m249.641 3.319 61.737 45.611c8.736 6.454 8.736 19.518 0 25.972l-61.737 45.611c-10.658 7.874-25.74.265-25.74-12.986v-91.222c.001-13.251 15.082-20.86 25.74-12.986z" fill="#b1ef97"/></g></g></g><g><g><g><path d="m311.379 48.8-61.737-45.611c-10.658-7.874-25.74-.265-25.74 12.986v80.455c0-46.964 56.858-70.451 87.477-47.83z" fill="#92dd7a"/></g></g></g><g><g><g><path d="m262.359 508.681-61.737-45.611c-8.736-6.454-8.736-19.518 0-25.972l61.737-45.611c10.658-7.874 25.74-.265 25.74 12.986v91.222c-.001 13.251-15.082 20.86-25.74 12.986z" fill="#b1ef97"/></g></g></g><g><g><g><path d="m200.621 463.2 61.737 45.611c10.658 7.874 25.74.265 25.74-12.986v-80.455c0 46.964-56.858 70.451-87.477 47.83z" fill="#92dd7a"/></g></g></g></g></svg>